<svg xmlns="http://www.w3.org/2000/svg" xmlns:xlink="http://www.w3.org/1999/xlink" viewBox="0 0 650 650"><defs><style>.cls-1{isolation:isolate;}.cls-2{fill:url(#Безымянный_градиент_263);}.cls-3{fill:url(#Безымянный_градиент_170);}.cls-4{fill:#fff;}.cls-5{fill:url(#Безымянный_градиент_271);}.cls-6{fill:url(#Безымянный_градиент_84);}.cls-7{fill:url(#Безымянный_градиент_3);}.cls-8{fill:url(#Безымянный_градиент_123);}.cls-9{fill:url(#Безымянный_градиент_39);}.cls-10{fill:url(#Безымянный_градиент_73);}.cls-11{fill:url(#Безымянный_градиент_139);}.cls-12{fill:url(#Безымянный_градиент_39-2);}.cls-13{fill:url(#Безымянный_градиент_271-2);}.cls-14{fill:url(#Безымянный_градиент_39-3);}.cls-15,.cls-26,.cls-27,.cls-28,.cls-29,.cls-30,.cls-31,.cls-32,.cls-35,.cls-48,.cls-50,.cls-51,.cls-58,.cls-59,.cls-66,.cls-86{fill:none;stroke-miterlimit:10;}.cls-15{stroke:url(#Безымянный_градиент_45);}.cls-16{fill:url(#Безымянный_градиент_39-4);}.cls-17{fill:url(#Безымянный_градиент_139-2);}.cls-18{fill:url(#Безымянный_градиент_123-2);}.cls-19{fill:url(#Безымянный_градиент_48);}.cls-20{fill:url(#Безымянный_градиент_123-3);}.cls-21{fill:url(#Безымянный_градиент_39-5);}.cls-22{fill:url(#Безымянный_градиент_39-6);}.cls-23{fill:url(#Безымянный_градиент_39-7);}.cls-24{fill:url(#Безымянный_градиент_39-8);}.cls-25{fill:url(#Безымянный_градиент_39-9);}.cls-26,.cls-27,.cls-28,.cls-29,.cls-30{stroke-width:2px;}.cls-26{stroke:url(#Безымянный_градиент_39-10);}.cls-27{stroke:url(#Безымянный_градиент_39-11);}.cls-28{stroke:url(#Безымянный_градиент_39-12);}.cls-29{stroke:url(#Безымянный_градиент_39-13);}.cls-30{stroke:url(#Безымянный_градиент_39-14);}.cls-31{stroke:url(#Безымянный_градиент_139-3);}.cls-32{stroke:#1f1844;}.cls-33{fill:url(#Безымянный_градиент_139-4);}.cls-34{fill:url(#Безымянный_градиент_39-15);}.cls-35{stroke:url(#Безымянный_градиент_39-16);}.cls-36{fill:#1f1844;}.cls-37{fill:url(#Безымянный_градиент_44);}.cls-38{fill:#bfc3db;}.cls-38,.cls-39{opacity:0.5;mix-blend-mode:multiply;}.cls-39{fill:#bbbfd9;}.cls-40{fill:url(#Безымянный_градиент_271-3);}.cls-41{fill:url(#Безымянный_градиент_48-2);}.cls-42{fill:url(#Безымянный_градиент_43);}.cls-43{fill:url(#Безымянный_градиент_271-4);}.cls-44{fill:url(#Безымянный_градиент_123-4);}.cls-45{fill:url(#Безымянный_градиент_87);}.cls-46{fill:url(#Безымянный_градиент_123-5);}.cls-47{fill:url(#Безымянный_градиент_123-6);}.cls-48,.cls-58,.cls-59{stroke:#fff;}.cls-49{fill:url(#Безымянный_градиент_39-17);}.cls-50{stroke:url(#Безымянный_градиент_139-5);}.cls-51{stroke:url(#Безымянный_градиент_39-18);}.cls-52{fill:#c8cce0;}.cls-53{fill:url(#Безымянный_градиент_41);}.cls-54{fill:#d5527e;}.cls-55{fill:url(#Безымянный_градиент_133);}.cls-56{fill:url(#Безымянный_градиент_130);}.cls-57{fill:url(#Безымянный_градиент_139-6);}.cls-58{stroke-width:0.68px;}.cls-59{stroke-width:0.65px;}.cls-60{fill:url(#Безымянный_градиент_5);}.cls-61{fill:url(#Безымянный_градиент_5-2);}.cls-62{fill:url(#Безымянный_градиент_33);}.cls-63{fill:url(#Безымянный_градиент_33-2);}.cls-64{fill:url(#Безымянный_градиент_33-3);}.cls-65{fill:url(#Безымянный_градиент_33-4);}.cls-66{stroke-width:0.98px;stroke:url(#Безымянный_градиент_33-5);}.cls-67{fill:url(#Безымянный_градиент_33-6);}.cls-68{fill:url(#Безымянный_градиент_33-7);}.cls-69{fill:url(#Безымянный_градиент_11);}.cls-70{fill:url(#Безымянный_градиент_123-7);}.cls-71{fill:url(#Безымянный_градиент_138);}.cls-72{fill:url(#Безымянный_градиент_269);}.cls-73{fill:url(#Безымянный_градиент_16);}.cls-74{fill:#cf507a;}.cls-75{fill:#572500;}.cls-76{fill:url(#Безымянный_градиент_250);}.cls-77{fill:url(#Безымянный_градиент_123-8);}.cls-78{fill:url(#Безымянный_градиент_48-3);}.cls-79{fill:url(#Безымянный_градиент_123-9);}.cls-80{fill:url(#Безымянный_градиент_139-7);}.cls-81{fill:url(#Безымянный_градиент_77);}.cls-82{fill:url(#Безымянный_градиент_86);}.cls-83{fill:url(#Безымянный_градиент_83);}.cls-84{fill:#2d2e64;}.cls-85{fill:url(#Безымянный_градиент_139-8);}.cls-86{stroke-width:4.15px;stroke:url(#Безымянный_градиент_139-9);}.cls-87{fill:url(#Безымянный_градиент_139-10);}</style><linearGradient id="Безымянный_градиент_263" x1="10.08" y1="311.4" x2="636.58" y2="311.4" gradientUnits="userSpaceOnUse"><stop offset="0" stop-color="#f0f2f5"/><stop offset="0.99" stop-color="#f5f7f8"/></linearGradient><linearGradient id="Безымянный_градиент_170" x1="12.22" y1="225.47" x2="316.96" y2="225.47" gradientUnits="userSpaceOnUse"><stop offset="0.01" stop-color="#bbbfd9"/><stop offset="1" stop-color="#d6dbf8"/></linearGradient><linearGradient id="Безымянный_градиент_271" x1="622.06" y1="409.25" x2="494.56" y2="352.25" gradientUnits="userSpaceOnUse"><stop offset="0.01" stop-color="#bbbfd9"/><stop offset="0.29" stop-color="#cacde2"/><stop offset="0.84" stop-color="#f2f3f8"/><stop offset="1" stop-color="#fff"/></linearGradient><linearGradient id="Безымянный_градиент_84" x1="487.65" y1="398.83" x2="461.83" y2="383.15" gradientUnits="userSpaceOnUse"><stop offset="0.32" stop-color="#9c9c9c"/><stop offset="0.5" stop-color="#ababab"/><stop offset="0.86" stop-color="#d3d3d3"/><stop offset="0.91" stop-color="#d9d9d9"/></linearGradient><linearGradient id="Безымянный_градиент_3" x1="466.28" y1="403.28" x2="592.37" y2="403.28" gradientUnits="userSpaceOnUse"><stop offset="0.09" stop-color="#d9d9d9"/><stop offset="0.12" stop-color="#d6d6d6"/><stop offset="0.7" stop-color="#aeaeae"/><stop offset="1" stop-color="#9f9f9f"/></linearGradient><linearGradient id="Безымянный_градиент_123" x1="289.64" y1="369.08" x2="308.31" y2="369.08" gradientUnits="userSpaceOnUse"><stop offset="0" stop-color="#753200"/><stop offset="1" stop-color="#a04400"/></linearGradient><linearGradient id="Безымянный_градиент_39" x1="356.02" y1="396.35" x2="352.89" y2="368.8" gradientUnits="userSpaceOnUse"><stop offset="0" stop-color="#464b8b"/><stop offset="0.28" stop-color="#393c76"/><stop offset="0.74" stop-color="#27275a"/><stop offset="1" stop-color="#201f4f"/></linearGradient><linearGradient id="Безымянный_градиент_73" x1="332.79" y1="281.35" x2="383.25" y2="281.35" gradientUnits="userSpaceOnUse"><stop offset="0.09" stop-color="#e6e6e6"/><stop offset="1" stop-color="#dedede"/></linearGradient><linearGradient id="Безымянный_градиент_139" x1="262.06" y1="287.41" x2="343.49" y2="287.41" gradientUnits="userSpaceOnUse"><stop offset="0" stop-color="#201f4f"/><stop offset="0.26" stop-color="#27275a"/><stop offset="0.72" stop-color="#393c76"/><stop offset="1" stop-color="#464b8b"/></linearGradient><linearGradient id="Безымянный_градиент_39-2" x1="369.56" y1="287.3" x2="495.8" y2="287.3" xlink:href="#Безымянный_градиент_39"/><linearGradient id="Безымянный_градиент_271-2" x1="84.14" y1="381.21" x2="197.64" y2="341.21" xlink:href="#Безымянный_градиент_271"/><linearGradient id="Безымянный_градиент_39-3" x1="330.64" y1="228.97" x2="329.51" y2="206.35" xlink:href="#Безымянный_градиент_39"/><linearGradient id="Безымянный_градиент_45" x1="383.69" y1="376.08" x2="384.67" y2="375.95" gradientUnits="userSpaceOnUse"><stop offset="0" stop-color="#bdbdbd"/><stop offset="0.55" stop-color="#ccc"/><stop offset="0.91" stop-color="#d9d9d9"/></linearGradient><linearGradient id="Безымянный_градиент_39-4" x1="369.2" y1="207.08" x2="400.23" y2="207.08" xlink:href="#Безымянный_градиент_39"/><linearGradient id="Безымянный_градиент_139-2" x1="369.2" y1="205.59" x2="399.44" y2="205.59" xlink:href="#Безымянный_градиент_139"/><linearGradient id="Безымянный_градиент_123-2" x1="-3080.98" y1="354.1" x2="-2995.51" y2="314.53" gradientTransform="matrix(-0.99, 0.1, 0.1, 0.99, -2670.73, 139.01)" xlink:href="#Безымянный_градиент_123"/><linearGradient id="Безымянный_градиент_48" x1="-2992.35" y1="337.36" x2="-3022.57" y2="367.02" gradientTransform="matrix(-0.99, 0.1, 0.1, 0.99, -2670.73, 139.01)" gradientUnits="userSpaceOnUse"><stop offset="0" stop-color="#a04400"/><stop offset="1" stop-color="#753200"/></linearGradient><linearGradient id="Безымянный_градиент_123-3" x1="-2992.42" y1="316.26" x2="-2996.32" y2="320.09" gradientTransform="matrix(-0.99, 0.1, 0.1, 0.99, -2670.73, 139.01)" xlink:href="#Безымянный_градиент_123"/><linearGradient id="Безымянный_градиент_39-5" x1="335.24" y1="244.56" x2="342.04" y2="244.56" xlink:href="#Безымянный_градиент_39"/><linearGradient id="Безымянный_градиент_39-6" x1="334.54" y1="273.09" x2="341.34" y2="273.09" xlink:href="#Безымянный_градиент_39"/><linearGradient id="Безымянный_градиент_39-7" x1="331.85" y1="302.07" x2="338.65" y2="302.07" xlink:href="#Безымянный_градиент_39"/><linearGradient id="Безымянный_градиент_39-8" x1="328.45" y1="334.41" x2="335.25" y2="334.41" xlink:href="#Безымянный_градиент_39"/><linearGradient id="Безымянный_градиент_39-9" x1="323.33" y1="369.45" x2="330.13" y2="369.45" xlink:href="#Безымянный_градиент_39"/><linearGradient id="Безымянный_градиент_39-10" x1="373.12" y1="240.45" x2="381.16" y2="240.45" xlink:href="#Безымянный_градиент_39"/><linearGradient id="Безымянный_градиент_39-11" x1="375.77" y1="269.05" x2="383.8" y2="269.05" xlink:href="#Безымянный_градиент_39"/><linearGradient id="Безымянный_градиент_39-12" x1="379.7" y1="299.03" x2="387.98" y2="299.03" xlink:href="#Безымянный_градиент_39"/><linearGradient id="Безымянный_градиент_39-13" x1="382.21" y1="331" x2="390.49" y2="331" xlink:href="#Безымянный_градиент_39"/><linearGradient id="Безымянный_градиент_39-14" x1="386.11" y1="367.49" x2="394.69" y2="367.49" xlink:href="#Безымянный_градиент_39"/><linearGradient id="Безымянный_градиент_139-3" x1="381.73" y1="292.91" x2="406.12" y2="292.91" xlink:href="#Безымянный_градиент_139"/><linearGradient id="Безымянный_градиент_139-4" x1="318.56" y1="266.51" x2="319.45" y2="246.21" xlink:href="#Безымянный_градиент_139"/><linearGradient id="Безымянный_градиент_39-15" x1="318.56" y1="265.01" x2="319.45" y2="244.71" xlink:href="#Безымянный_градиент_39"/><linearGradient id="Безымянный_градиент_39-16" x1="304.82" y1="285.69" x2="334.3" y2="285.69" xlink:href="#Безымянный_градиент_39"/><linearGradient id="Безымянный_градиент_44" x1="321.72" y1="599.29" x2="321.72" y2="390.51" gradientUnits="userSpaceOnUse"><stop offset="0.31" stop-color="#fff"/><stop offset="0.44" stop-color="#ecedf4"/><stop offset="0.69" stop-color="#cacde2"/><stop offset="0.99" stop-color="#bbbfd9"/></linearGradient><linearGradient id="Безымянный_градиент_271-3" x1="398.1" y1="460.69" x2="406.1" y2="389.69" xlink:href="#Безымянный_градиент_271"/><linearGradient id="Безымянный_градиент_48-2" x1="512.81" y1="352.78" x2="491.14" y2="341.45" gradientTransform="matrix(1, 0, 0, 1, 0, 0)" xlink:href="#Безымянный_градиент_48"/><linearGradient id="Безымянный_градиент_43" x1="527.89" y1="427.96" x2="559.72" y2="427.96" gradientUnits="userSpaceOnUse"><stop offset="0" stop-color="#c2c2c2"/><stop offset="1" stop-color="#bdbdbd"/></linearGradient><linearGradient id="Безымянный_градиент_271-4" x1="462.23" y1="497.03" x2="488.48" y2="449.35" xlink:href="#Безымянный_градиент_271"/><linearGradient id="Безымянный_градиент_123-4" x1="558.04" y1="319.42" x2="506.36" y2="270.9" xlink:href="#Безымянный_градиент_123"/><linearGradient id="Безымянный_градиент_87" x1="512.73" y1="277.26" x2="531.39" y2="273.27" gradientUnits="userSpaceOnUse"><stop offset="0" stop-color="#a04400" stop-opacity="0"/><stop offset="0.18" stop-color="#9a4100" stop-opacity="0.14"/><stop offset="0.52" stop-color="#8a3b00" stop-opacity="0.52"/><stop offset="0.9" stop-color="#753200"/></linearGradient><linearGradient id="Безымянный_градиент_123-5" x1="492.16" y1="308.92" x2="502" y2="308.92" xlink:href="#Безымянный_градиент_123"/><linearGradient id="Безымянный_градиент_123-6" x1="542.84" y1="333.35" x2="493.11" y2="286.66" xlink:href="#Безымянный_градиент_123"/><linearGradient id="Безымянный_градиент_39-17" x1="341.02" y1="203.51" x2="324.35" y2="209.68" xlink:href="#Безымянный_градиент_39"/><linearGradient id="Безымянный_градиент_139-5" x1="333.74" y1="236.77" x2="343.42" y2="236.77" xlink:href="#Безымянный_градиент_139"/><linearGradient id="Безымянный_градиент_39-18" x1="369.95" y1="233.72" x2="382.39" y2="233.72" xlink:href="#Безымянный_градиент_39"/><linearGradient id="Безымянный_градиент_41" x1="237.05" y1="521.88" x2="364.55" y2="521.88" gradientUnits="userSpaceOnUse"><stop offset="0.01" stop-color="#bbbfd9"/><stop offset="0.77" stop-color="#cacde1"/><stop offset="1" stop-color="#d0d2e4"/></linearGradient><linearGradient id="Безымянный_градиент_133" x1="165.49" y1="545.26" x2="216.61" y2="533.51" gradientUnits="userSpaceOnUse"><stop offset="0" stop-color="#abaaea"/><stop offset="1" stop-color="#e7eefe"/></linearGradient><linearGradient id="Безымянный_градиент_130" x1="167.81" y1="526.28" x2="213.1" y2="526.28" gradientUnits="userSpaceOnUse"><stop offset="0" stop-color="#cdccff"/><stop offset="0.89" stop-color="#8988d5"/></linearGradient><linearGradient id="Безымянный_градиент_139-6" x1="139.61" y1="506.3" x2="191.31" y2="506.3" xlink:href="#Безымянный_градиент_139"/><linearGradient id="Безымянный_градиент_5" x1="179.96" y1="501.66" x2="160.8" y2="495" gradientUnits="userSpaceOnUse"><stop offset="0" stop-color="#1f1844"/><stop offset="0.99" stop-color="#3d3c99"/></linearGradient><linearGradient id="Безымянный_градиент_5-2" x1="183.69" y1="515.63" x2="160.71" y2="512.88" xlink:href="#Безымянный_градиент_5"/><linearGradient id="Безымянный_градиент_33" x1="1175.35" y1="1945.26" x2="1182.77" y2="1945.26" gradientTransform="translate(-2039.54 -48.02) rotate(-45.37)" gradientUnits="userSpaceOnUse"><stop offset="0" stop-color="#e0e4eb"/><stop offset="0.99" stop-color="#f3f6fd"/></linearGradient><linearGradient id="Безымянный_градиент_33-2" x1="1114.76" y1="3110.2" x2="1122.25" y2="3110.2" gradientTransform="translate(-3132.3 614.72) rotate(-72.22)" xlink:href="#Безымянный_градиент_33"/><linearGradient id="Безымянный_градиент_33-3" x1="-1827.78" y1="214.46" x2="-1820.35" y2="214.46" gradientTransform="matrix(0.63, 0.78, -0.78, 0.63, 1506.75, 1759.12)" xlink:href="#Безымянный_градиент_33"/><linearGradient id="Безымянный_градиент_33-4" x1="-2164.07" y1="142.45" x2="-2156.46" y2="142.45" gradientTransform="matrix(0.5, 0.87, -0.77, 0.45, 1382.33, 2300.91)" xlink:href="#Безымянный_градиент_33"/><linearGradient id="Безымянный_градиент_33-5" x1="610.06" y1="794.81" x2="621" y2="794.81" gradientTransform="translate(-596.98 -132.18) rotate(-13.38)" xlink:href="#Безымянный_градиент_33"/><linearGradient id="Безымянный_градиент_33-6" x1="1061.61" y1="3682.66" x2="1069.39" y2="3682.66" gradientTransform="matrix(0.04, -0.93, 1, 0.04, -3568.58, 1349.06)" xlink:href="#Безымянный_градиент_33"/><linearGradient id="Безымянный_градиент_33-7" x1="-2452.56" y1="174.13" x2="-2444.13" y2="174.13" gradientTransform="matrix(0.35, 0.94, -0.74, 0.28, 1173.2, 2754.45)" xlink:href="#Безымянный_градиент_33"/><linearGradient id="Безымянный_градиент_11" x1="189.44" y1="449.41" x2="183.82" y2="472.38" gradientUnits="userSpaceOnUse"><stop offset="0" stop-color="#e6eaf1"/><stop offset="0.99" stop-color="#f3f6fd"/></linearGradient><linearGradient id="Безымянный_градиент_123-7" x1="527.19" y1="328.43" x2="580.54" y2="310.27" xlink:href="#Безымянный_градиент_123"/><linearGradient id="Безымянный_градиент_138" x1="178.57" y1="330.02" x2="191.71" y2="258.03" gradientUnits="userSpaceOnUse"><stop offset="0.38" stop-color="#201f4f"/><stop offset="0.54" stop-color="#27275a"/><stop offset="0.83" stop-color="#393c76"/><stop offset="1" stop-color="#464b8b"/></linearGradient><linearGradient id="Безымянный_градиент_269" x1="284.37" y1="500.41" x2="400.89" y2="500.41" gradientUnits="userSpaceOnUse"><stop offset="0" stop-color="#fff"/><stop offset="0.16" stop-color="#f2f3f8"/><stop offset="0.71" stop-color="#cacde2"/><stop offset="0.99" stop-color="#bbbfd9"/></linearGradient><linearGradient id="Безымянный_градиент_16" x1="243.12" y1="404.51" x2="250.12" y2="368.76" gradientUnits="userSpaceOnUse"><stop offset="0.11" stop-color="#8988d5"/><stop offset="0.56" stop-color="#9d9ce8"/><stop offset="1" stop-color="#a7a5ee"/></linearGradient><linearGradient id="Безымянный_градиент_250" x1="140.81" y1="383.57" x2="235.44" y2="383.57" gradientUnits="userSpaceOnUse"><stop offset="0" stop-color="#a7a5ee"/><stop offset="0.44" stop-color="#9d9ce8"/><stop offset="0.89" stop-color="#8988d5"/></linearGradient><linearGradient id="Безымянный_градиент_123-8" x1="132.1" y1="283.12" x2="207.76" y2="248.1" xlink:href="#Безымянный_градиент_123"/><linearGradient id="Безымянный_градиент_48-3" x1="-3564.5" y1="875.02" x2="-3591.49" y2="901.5" gradientTransform="matrix(-0.98, 0.21, 0.21, 0.98, -3502.9, 205.46)" xlink:href="#Безымянный_градиент_48"/><linearGradient id="Безымянный_градиент_123-9" x1="-3564.56" y1="856.17" x2="-3568.05" y2="859.59" gradientTransform="matrix(-0.98, 0.21, 0.21, 0.98, -3502.9, 205.46)" xlink:href="#Безымянный_градиент_123"/><linearGradient id="Безымянный_градиент_139-7" x1="126.74" y1="285.96" x2="242.76" y2="285.96" xlink:href="#Безымянный_градиент_139"/><linearGradient id="Безымянный_градиент_77" x1="221.11" y1="305.39" x2="157.47" y2="291.21" gradientUnits="userSpaceOnUse"><stop offset="0" stop-color="#401b00"/><stop offset="1" stop-color="#823700"/></linearGradient><linearGradient id="Безымянный_градиент_86" x1="182.9" y1="285.87" x2="216.65" y2="242.62" gradientUnits="userSpaceOnUse"><stop offset="0" stop-color="#a04400" stop-opacity="0"/><stop offset="0.17" stop-color="#813700" stop-opacity="0.31"/><stop offset="0.44" stop-color="#5b2700" stop-opacity="0.69"/><stop offset="0.69" stop-color="#451d00" stop-opacity="0.92"/><stop offset="0.9" stop-color="#3d1a00"/></linearGradient><linearGradient id="Безымянный_градиент_83" x1="160.86" y1="302.31" x2="193.86" y2="320.64" gradientUnits="userSpaceOnUse"><stop offset="0" stop-color="#a04400"/><stop offset="1" stop-color="#3d1b00"/></linearGradient><linearGradient id="Безымянный_градиент_139-8" x1="100.21" y1="505.09" x2="100.21" y2="478.56" xlink:href="#Безымянный_градиент_139"/><linearGradient id="Безымянный_градиент_139-9" x1="88.75" y1="485.5" x2="88.75" y2="399.63" xlink:href="#Безымянный_градиент_139"/><linearGradient id="Безымянный_градиент_139-10" x1="1282.97" y1="1584.17" x2="1282.97" y2="1540.36" gradientTransform="matrix(0.73, -0.69, 0.69, 0.73, -1894, 142.02)" xlink:href="#Безымянный_градиент_139"/></defs><title>1</title><g class="cls-1"><g id="Слой_3" data-name="Слой 3"><path class="cls-2" d="M567.31,345.08c-64.38,32.92-40,70.4-27.19,109.93,9.76,30.07,12.85,61.34-34.86,92.7L54.55,544.28c-21.55-24.88-41.82-50.45-44-81.1-3-42.1,8-84,20.91-110.46,55-112.47,212.37-277.2,416.83-277.63C661.68,74.65,682.31,286.26,567.31,345.08Z"/><rect class="cls-3" x="12.22" y="120.84" width="304.74" height="209.26" rx="11.07" ry="11.07"/><rect class="cls-4" x="20.89" y="129.82" width="287.41" height="191.31" rx="6.61" ry="6.61"/><path class="cls-5" d="M559.72,305.48l59.59,15.28a32.18,32.18,0,0,1,22.26,42.13L600.12,477.4,458.5,423.9l57.13-125.42Z"/><path class="cls-6" d="M485.46,352.1a126.64,126.64,0,0,0-15,27.8c-6,15.83-23.39,39.69-23.39,39.69l19.18,7.25s17.42-29.52,19.18-36.94S485.46,352.1,485.46,352.1Z"/><path class="cls-7" d="M466.28,426.84l69.08,26.1,41.85,15.81s14-1.77,15-10.27-3-81.5-11.75-98S550,340.06,550,340.06s-16.75,13.17-26.75,12-6.58-12-6.58-12l-10.92-2.26-12.65,2.4-7.61,11.9Z"/><path class="cls-8" d="M289.64,364.23s7,20.84,15.09,19.5c0-4.67,3.58-17.69,3.58-17.69l-4.81-11.68Z"/><polygon class="cls-9" points="307.87 356.57 302.31 389.9 409.27 400.69 404.7 358.49 307.87 356.57"/><path class="cls-10" d="M383.25,367.49c-3.72.54-39.95.15-50.47-1.44,1.63-11.56,9.58-68.45,10.19-89.26.3-10.28.6-23.42.5-34.92l0-2c0-.58,0-1.16,0-1.73,0-.18,0-.36,0-.54,0-.38,0-.76,0-1.13,0-.9-.05-1.78-.08-2.65s0-1.61-.08-2.39q-.11-2.34-.24-4.44c0-.5-.07-1-.11-1.47l-.06-.77c0-.26,0-.5-.07-.75s0-.6-.09-.89,0-.44-.07-.66q-.1-1-.24-1.83c0-.16,0-.31-.07-.47-.12-.76-.25-1.44-.4-2l-.18-.69q-.07-.25-.15-.48a2.85,2.85,0,0,0-.16-.44,3.18,3.18,0,0,0-.17-.37.48.48,0,0,0-.08-.16.6.6,0,0,0-.09-.15h0L338.8,195a23.62,23.62,0,0,1,2.39,0s21.66.47,30.61.1c1.74,5.47,3.63,12.86,2.08,15.34-2.32,3.69-6.49,4.33-3.81,12h0a3,3,0,0,0-.13.32,3.58,3.58,0,0,0-.11.35c0,.12-.07.25-.1.38l-.09.4C368.31,230.52,383.07,365.89,383.25,367.49Z"/><path class="cls-11" d="M343,276.78c-.61,20.81-10,88.37-11.67,99.93a166.72,166.72,0,0,1-28.53-6.81l-.47-105L291.85,291l12.88,62.5-18.26,13c-9.37,3.52-25.24-61.18-24.38-75.77.84-14.36,27.63-67.73,36.63-78.15,5.45-6.31,19.86-11.41,30.38-14.45l-10.46,27.12s8.87,2.64,10.93-2,7.15-10,10.94-8a.8.8,0,0,1,.19.13,1.29,1.29,0,0,1,.19.21,1.91,1.91,0,0,1,.15.21h0a.6.6,0,0,1,.09.15.48.48,0,0,1,.08.16,3.18,3.18,0,0,1,.17.37,4.5,4.5,0,0,1,.16.44q.07.22.15.48l.18.69c.14.6.27,1.28.4,2,0,.16.05.31.07.47.08.58.17,1.19.24,1.83,0,.22.05.44.07.66l.09.89c0,.25,0,.49.07.75l.06.77c0,.48.07,1,.11,1.47q.14,2.1.24,4.44c0,.78.06,1.57.08,2.39s0,1.75.08,2.65c0,.37,0,.75,0,1.13,0,.18,0,.36,0,.54l0,1.73,0,2C343.57,253.36,343.27,266.5,343,276.78Z"/><path class="cls-12" d="M495.4,336.57,484.63,353.4a3.57,3.57,0,0,1-5.26.84l-49.49-40.51L404.3,277.27l6.25,91.22s.49,3.62-26.37,7.52c-.18-1.6-15.87-145.49-14.54-152.12l.09-.4c0-.13.06-.26.1-.38a3.58,3.58,0,0,1,.11-.35,3,3,0,0,1,.13-.32h0a2.9,2.9,0,0,1,.21-.47,1.84,1.84,0,0,1,.13-.24l.18-.29a1.85,1.85,0,0,1,.19-.27,1.37,1.37,0,0,1,.2-.22.05.05,0,0,1,0,0,1.44,1.44,0,0,1,.22-.21,2.12,2.12,0,0,1,.23-.19,2.52,2.52,0,0,1,.68-.4l.26-.1a2.94,2.94,0,0,1,.82-.18,4.2,4.2,0,0,1,.5,0,7.42,7.42,0,0,1,3.25.89l-3.09-6.78,23.84,4.46-11.61-19.78c11.77,5.12,27.23,15.08,30.86,25.31,5.33,15,33.24,66.82,33.24,66.82L495,333.31A2.58,2.58,0,0,1,495.4,336.57Z"/><path class="cls-13" d="M98.14,301.53c-18.7,6.43-32.22,31.34-24.71,54.71l24.21,75.33,134.2-27.66L172.25,292.57Z"/><path class="cls-14" d="M342,220.77a1.91,1.91,0,0,0-.15-.21,1.29,1.29,0,0,0-.19-.21.8.8,0,0,0-.19-.13c-3.79-2-8.87,3.33-10.94,8s-11.93-3-11.93-3L330.1,203.1l1.2-3.1,8.42-7.6,0,8.44L341,215.79Z"/><path class="cls-15" d="M384.18,376h0"/><path class="cls-16" d="M377.51,217.57l1.27,4.87c-2.77-.94-6.08-2-7.77,0a.05.05,0,0,0,0,0,4.47,4.47,0,0,0-.91,1.49c-2.68-7.64,1.49-8.28,3.81-12,1.55-2.48-.34-9.87-2.08-15.34-1.16-3.61-2.24-6.38-2.24-6.38l10.91,1.45,5.64,8.39,13.84,19a1.43,1.43,0,0,1-1.41,2.24Z"/><path class="cls-17" d="M376,215.79l1,4.89a7.42,7.42,0,0,0-3.25-.89,4.2,4.2,0,0,0-.5,0,2.94,2.94,0,0,0-.82.18l-.26.1a2.52,2.52,0,0,0-.68.4,2.12,2.12,0,0,0-.23.19,1.44,1.44,0,0,0-.22.21.05.05,0,0,0,0,0,1.37,1.37,0,0,0-.2.22,1.85,1.85,0,0,0-.19.27l-.18.29a1.84,1.84,0,0,0-.13.24,2.9,2.9,0,0,0-.21.47c-2.68-7.64,1.49-8.28,3.81-12,1.55-2.48-.34-9.87-2.08-15.34-1.16-3.61-2.24-6.38-2.24-6.38l10.91,1.45,5.64,8.39,13.1,19.48a1.31,1.31,0,0,1-1.34,2Z"/><path class="cls-18" d="M339.69,199.26c.14-2.36.6-8.42.82-15.48.15-4.89.29-9.95.41-13.85,0-.34,0-.67,0-1a49.59,49.59,0,0,0-.16-6.34c-.09-.13-.18-.25-.26-.38C333,151.53,333.3,144,337.44,141a6.91,6.91,0,0,1,1.78-.91h0s-3.24-14.26,1.46-26.5c6.21-16.21,28.4-18.66,42.36-16.11s27.5,17.65,24.4,33.16c-1.23,6.16-3.46,11.89-3.58,17.41s3,14.36-.25,23.66c-4.7,13.34-18.09,18.15-26.5,19a27,27,0,0,1-3.23.12l-.14,2.32-.11,1.89-.12,2c-.27,4.6-.72,5.68-.72,5.68a15,15,0,0,1-15.39,9.78C345.37,211.83,339.36,205,339.69,199.26Z"/><path class="cls-19" d="M340.91,169.93c9.14,16.63,22.51,22.58,32.71,25.09l.11-1.89.14-2.32c-9.73-4.1-21-12.41-33.36-28.58.08.13.17.25.26.38a49.59,49.59,0,0,1,.16,6.34C340.92,169.27,340.92,169.59,340.91,169.93Z"/><path class="cls-20" d="M344.11,147s-2.83-4.21-5-1.17.87,8.49.87,8.49Z"/><circle class="cls-21" cx="338.64" cy="244.56" r="3.4"/><circle class="cls-22" cx="337.94" cy="273.09" r="3.4"/><circle class="cls-23" cx="335.25" cy="302.07" r="3.4"/><circle class="cls-24" cx="331.85" cy="334.41" r="3.4"/><circle class="cls-25" cx="326.73" cy="369.45" r="3.4"/><line class="cls-26" x1="373.31" y1="241.16" x2="380.97" y2="239.73"/><line class="cls-27" x1="375.95" y1="269.77" x2="383.62" y2="268.34"/><line class="cls-28" x1="379.78" y1="299.39" x2="387.89" y2="298.67"/><line class="cls-29" x1="382.3" y1="331.36" x2="390.4" y2="330.65"/><line class="cls-30" x1="386.35" y1="368.5" x2="394.45" y2="366.48"/><polyline class="cls-31" points="405.97 359.56 397.64 362.07 382.3 232.56 402.64 232.56 400.23 223.22"/><line class="cls-32" x1="280.67" y1="353.32" x2="300.72" y2="340.23"/><line class="cls-32" x1="470.49" y1="342.52" x2="482.47" y2="324.1"/><polygon class="cls-33" points="307.25 253.19 331.3 254.22 330.4 260.85 317.71 264.89 306.64 259.85 307.25 253.19"/><polygon class="cls-34" points="307.25 251.7 331.3 252.73 330.4 259.36 317.71 263.4 306.64 258.36 307.25 251.7"/><path class="cls-35" d="M305.31,207.46l2.92,29.88,25.54-.24c-3.31,64.84-4.31,71.44-10.31,126.27l-15-3.37"/><path class="cls-36" d="M352.6,150.9l-.55,3.8c8.63,4.92,26,19.05,29.69,19.63,4.72.73,6.3-4.74,8.84-3.47s2.17,4.57,3.94,4.57c.92,0,7.86-3.9,9.84-6.27,0,0-2.4,7.83-3.06,9.46-1.52,3.79-12,13.29-12,13.29a4.35,4.35,0,0,1-3.46,1.12l-11.14-1.25-5.6-3.23c-7.8-4.17-23.55-20.62-23.62-22.86a54,54,0,0,1,1.27-12.44Z"/><path class="cls-37" d="M632.86,489.59C609.74,617,300.62,602.44,173,591.28c-69.35-6.07-155.2-32.46-162.33-127.18q0-.46-.07-.92V449.37L342,379.9Z"/><ellipse class="cls-38" cx="186.06" cy="541.67" rx="30.81" ry="15.44"/><ellipse class="cls-38" cx="95.82" cy="486.72" rx="30.81" ry="15.44"/><polygon class="cls-39" points="355.1 453.9 352.17 456.4 458.5 503.28 533.31 467.7 355.1 453.9"/><polygon class="cls-40" points="342.22 370.03 355.1 449.37 460.64 492.23 444 402.98 342.22 370.03"/><path class="cls-41" d="M485.46,352.1s3.68,5.29,6.68,7.29,7.67,6.69,8.33,9.1,5.33-2.26,2.17-7.26-6.83-8-5.83-10,10.17-12.17,19.83-11.17,2-8.5-2.33-8.5-20,6.68-20,6.68Z"/><path class="cls-42" d="M558.22,403l1.5,40.75-24.36,9.21-7.47-2.82L553.47,441S557,403.48,558.22,403Z"/><polygon class="cls-43" points="460.64 492.23 533.31 461.9 448.62 427.78 460.64 492.23"/><path class="cls-44" d="M548.44,279c-2.09,4.43-7.39,9.14-7.57,10.57h0c-2.19,4.55-7.08,14.47-10.3,19.41-4.26,6.54-17,7.62-21.6,1.21s-15-14.38-15-14.38-5.72-4.8-5.17-7.35,12.36-6.71,13.18-11.88c.38-2.37-.3-4.68-.82-7.1-.61-2.84-1-5.84.76-9.31l0-.09c1-2,5.05-2.09,10.34-1.09,1.38.25,2.84.59,4.36,1h0c11.51,2.95,26.19,9.23,30.68,12.39C549.77,274.08,549.62,276.5,548.44,279Z"/><path class="cls-45" d="M554.44,276l-7.69,13.32-11.14-2.9-3.31-11.64-24-6.26-7.1.95c-.61-2.84-1-5.84.76-9.31L512.32,259l4.36,1h0l27.78,6.21Z"/><path class="cls-36" d="M550.13,295.72c-3.49.87-7.93,2.84-10,6.81a18.11,18.11,0,0,0-1.82,10.5c-.3-.12-.48-.21-.48-.21s-4.36,14.7-8.44,18.06c-1.92,1.58-9.53,1.66-17.55,1-9.06-.69-18.66-2.28-21.12-3.57-4.63-2.45-2.45-10.62,0-13.89a9.76,9.76,0,0,0,1.44-2.85c3.57,1.38,8.84,3.08,9.73,1.49,1-1.84-5.35-6.61-9.73-9a4.3,4.3,0,0,0-.62-1.1c-1.91-2.45,2.45-7.18,2.45-7.18s10.35,8,15,14.38,17.34,5.33,21.6-1.21c3.22-4.94,8.11-14.86,10.3-19.41,0,.23,0,.35,0,.35S545.4,294.52,550.13,295.72Z"/><path class="cls-46" d="M501.89,313.09c-.88,1.59-6.15-.11-9.73-1.49a11.41,11.41,0,0,0,0-7.48C496.54,306.48,502.91,311.25,501.89,313.09Z"/><path class="cls-47" d="M553.62,310.22a7.61,7.61,0,0,1-2.58,3.06c-.23,1.37-.54,3.25-.85,5.42l-.64,4.68c-.76,6-1.34,12.8-.83,16.76,1.09,8.35-28,17.61-33.76,14.62-4-2.11-3.87-13.07-3.42-19.38.1-1.46.22-2.67.3-3.46,8,.62,15.63.54,17.55-1a13.87,13.87,0,0,0,2.86-3.91,88.89,88.89,0,0,0,5.58-14.15s-.08-7,1.64-10.34a16.06,16.06,0,0,1,9.8-7.63c.16,0,2,0,2.18,0C556.35,295.84,557.71,301.93,553.62,310.22Z"/><path class="cls-36" d="M520.16,224.46l-.42,1.93-4-1.31-1,.84-1.15-.1v-1.36L502,222.79V225l-5-.94s-1.15,2-1.57,1.52a.54.54,0,0,0-.84,0v.89l9,1.88-.42,2.3,5.23.94s3.24-1.25,3.08,0-3.92.56-4.65.56-.73,2.06-.73,2.06-2.93-.63-3.35-.63-.21.63-2.09.63-2.09-1-2.09-1l-8.57-.21v1.25S485,234,484.5,235s6.69,0,6.69,0v1.36l3.45.84s-7.63,4-9.52,7.32a1.38,1.38,0,0,1,1,.35s-4.32,3.59-3,7.67c.77-1.12,1.12-1.57,1.12-1.57l7.28.94-.52,1.71-7.22,1.57,0,2s-5.16.66-4.84,2.75,6.59-.63,6.59-.63a3.63,3.63,0,0,0,.63,2.51c-.63,1.29-4.71,7.74-4.71,7.74h1.36s-3.24,6-2.41,9.2a52.7,52.7,0,0,1,4.81-10.14h.63l6-6.8,17.53,2.41,17.36-18L529.09,226Zm-13.85,23.42-6.17.52-.78-1.88s-8.78,1.31-9.2.78,0,1.67,0,1.67l-5.39-.37,3.29-4.39,1,.78,5.06-2.62,2.2-1.14.26,1.36-2.88.94-1,.47.26,1.52,7.53-1.15.16.73h-.94s.63,1.46,1,1.46,7.74-.37,7.74-.37Z"/><path class="cls-36" d="M561.94,243.16l-1.93.45-.52-4.15-1.2-.59-.4-1.08,1.23-.58L555.65,226l-2,.94-1.3-4.94s-2.29-.19-2-.77a.54.54,0,0,0-.36-.76l-.8.38,2.16,8.93-2.26.61,1.39,5.13s2.52,2.39,1.32,2.79-2.19-3.3-2.5-4-2.17.22-2.17.22-.69-2.91-.87-3.29-.66.08-1.46-1.62,0-2.34,0-2.34l-3.49-7.83-1.13.54s-1.92-4.53-3.09-4.55,2.87,6,2.87,6l-1.23.58.72,3.48s-6.86-5.19-10.69-5.45a1.38,1.38,0,0,1,.12,1.06s-5.1-2.36-8.2.61c1.34.21,1.9.33,1.9.33l2.28,7-1.77.26-4.51-5.84-1.78.81s-2.81-4.38-4.57-3.19,3.39,5.68,3.39,5.68a3.63,3.63,0,0,0-2,1.64c-1.43,0-9-.93-9-.93l.58,1.23s-6.77-.37-9.34,1.78a52.7,52.7,0,0,1,11.23,0l.27.57,8.7,2.47,13.44,20.28,15.65,4.53,19.25-6.52Zm-27.1-2.46-3.12-5.35,1.36-1.52s-4.95-7.37-4.66-8-1.51.72-1.51.72l-2-5,5.38,1.09-.28,1.23,4.54,3.45,2,1.5-1.12.82-2.08-2.19-.87-.74-1.26.89,4.27,6.31-.59.46-.4-.85s-1.05,1.19-.9,1.53,3.65,6.83,3.65,6.83Z"/><path class="cls-36" d="M553.35,240.56l4.69-1.81,1,1.81s5.73-1.6,6.57-.9.63,1.32.63,1.32l6.67.83-.73.94s2.08,1.56,1.77,1.56a26.19,26.19,0,0,0-2.81.42,16.66,16.66,0,0,1-2.29,0l-.52,1-1.67.52s4.38.21,4.9,1.77,6.88,1.15,6.36,2.4a3.47,3.47,0,0,1-1.25,1.67s5.11,1.46,4.9,2.19-1.67,1-1.67,1l-3-.42a2.6,2.6,0,0,0,.1,2,17.47,17.47,0,0,0,3.34,2.29l-.1,1s2.19,1.36,2,2.29l-.21.94s2.4,2.5,2.29,3.13-1.56.73-1.56.73.1.94-.52,1a3.7,3.7,0,0,1-1.67-.42l-1.36.43-1.56-1.26s5.21,7.51,4.07,7.92l-1.15.42s3.44,6.67,1.77,6.67-2-.45-2-.45l-1.67-4.24-1.56.52L575,274.54l-6.2.21-4.43-9Z"/><path class="cls-36" d="M563.2,254c-.85-.43,0-2.56.85-3.85a5.93,5.93,0,0,0,.88-1.56c-.68.82-1.11,1.38-1.11,1.38s-.24-3.06-.39-6a9.51,9.51,0,0,1-1.51-.24c-9.17-1.83-17.54-4.63-26.08-6.62a1.87,1.87,0,0,1-.66-.15,85.66,85.66,0,0,0-13.89-2.11c-1.07,10.22-6.58,20.12-11.92,29.32,7.51,2.3,21,6,21,6l19.74,4.93-20.23-2.52-1,4.95,13.57,3.3-4.28,14.22,6,2.15s4.73-3.73,8.17-.84,2.1,12-2.21,17.31a41,41,0,0,1-.86,9.58s13.42-23.91,18.86-29.43,7.2-12.44,7.26-15.31c0-1.84,2.24-5.28,4.17-8.08C573.67,265.5,569.63,259,563.2,254Z"/><path class="cls-48" d="M343.49,214.79s12.72,6.56,23.22.7"/><path class="cls-49" d="M341,215.78a1.91,1.91,0,0,0-.15-.21,1.29,1.29,0,0,0-.19-.21.8.8,0,0,0-.19-.13c-3.79-2-8.87,3.33-10.94,8s-10.93,2-10.93,2L325.38,197l15.13-10.14L339.68,200Z"/><line class="cls-50" x1="333.78" y1="237.09" x2="343.38" y2="236.44"/><line class="cls-51" x1="382.3" y1="232.56" x2="370.04" y2="234.88"/><polygon class="cls-52" points="460.64 492.23 460.64 497.95 533.31 467.7 533.31 461.9 460.64 492.23"/><polygon class="cls-52" points="460.64 497.95 355.1 453.9 355.1 449.37 460.64 492.23 460.64 497.95"/><circle class="cls-4" cx="390.4" cy="427.96" r="9.04"/><path class="cls-48" d="M506.3,347.29s1.08,11.22,7.5,13.25c10.25,3.25,35.47-10.18,35.47-10.18"/><polygon class="cls-53" points="364.55 531.23 282.05 547.06 237.04 505.23 288.01 496.7 303.55 525.23 352.48 521.88 364.55 531.23"/><polygon class="cls-54" points="366.87 528.91 284.37 544.74 239.37 502.91 290.34 494.38 305.87 522.91 354.8 519.56 366.87 528.91"/><path class="cls-55" d="M217,536.8c0,11.23-11.86,20.32-26.49,20.32S164,548,164,536.8a16.9,16.9,0,0,1,3.86-10.57v.05c0,3,10.14,5.39,22.65,5.39s22.65-2.41,22.65-5.39v0A16.86,16.86,0,0,1,217,536.8Z"/><path class="cls-56" d="M213.1,526.24v0c0,3-10.14,5.39-22.65,5.39s-22.65-2.41-22.65-5.39v-.05c0-.77.74-1.5,2-2.17h0c3.55-1.87,11.46-3.17,20.65-3.17s17.09,1.3,20.65,3.17h0C212.37,524.72,213.08,525.46,213.1,526.24Z"/><path class="cls-57" d="M191.31,528.58c-.91,0-2.06,0-3.37-.13l-.23,0c-6.8-.57-17.9-3.09-24.58-13.3a29.23,29.23,0,0,1-1.88-3.33,34.78,34.78,0,0,1-2.53-7.27c-2.32-9.91-14.83-16.68-19.1-17.71,1.44-5.14,19.46-2.82,30.53,3.85a20.23,20.23,0,0,1,7.36,6.9h0l1.38,5.9a35.06,35.06,0,0,0,2.47,9.41,46.43,46.43,0,0,0,2.12,4.5,57.86,57.86,0,0,0,5.22,8.06C190.23,527.44,191.31,528.58,191.31,528.58Z"/><path class="cls-58" d="M186.93,526.28s-13.82-8.06-16.47-19-11.11-18.39-19.86-19.39"/><path class="cls-54" d="M191.31,528.57s-7.76-31.59,1.52-39.78,22.65-11.22,34.13-5c-13.85.83-17.71,10.28-16.8,18.88C211,510.53,200.59,530.75,191.31,528.57Z"/><path class="cls-59" d="M191.31,528.57c14.32-12.77-8.5-33.24,25.65-45.61"/><path class="cls-60" d="M178.88,503.47c-5.49,1-19.81-4.77-19.52-8.8.27-3.69,12.09-.85,18.14,2.9h0Z"/><path class="cls-61" d="M183.48,517.38c-3.81,1.79-15.39.33-20.36-2.26-1.28-.66-2.11-1.4-2.27-2.17a1.17,1.17,0,0,1,.4-1.15c2.38-2.22,14.2-1.32,20.11,1.09A46.43,46.43,0,0,0,183.48,517.38Z"/><path class="cls-62" d="M165.9,468.91c2.58-4.37,21.09,13.65,17.85,17.6S163.45,473.08,165.9,468.91Z"/><path class="cls-63" d="M160.85,493.63c.37-5.09,22.72,2.23,21.57,7.25S160.5,498.47,160.85,493.63Z"/><path class="cls-64" d="M202.31,471.11c4,3.1-15.59,19.93-19.07,16.2S198.54,468.15,202.31,471.11Z"/><path class="cls-65" d="M200.44,492.63c3.33,3.76-15.54,13.22-18.38,9S197.27,489.05,200.44,492.63Z"/><path class="cls-66" d="M183.52,467.45a147.18,147.18,0,0,1-1.16,24.38c-1.73,11.36,2.63,30.59,9.71,36.74"/><path class="cls-67" d="M160.85,512.06c-1-4.67,23.66-2,23.87,2.82S161.78,516.51,160.85,512.06Z"/><path class="cls-68" d="M201.32,504.43c2.55,4.32-15.1,15.1-17.15,10.39S198.89,500.31,201.32,504.43Z"/><path class="cls-69" d="M189.77,448.77c5,.36-1.46,25.42-6.38,24.26S185,448.42,189.77,448.77Z"/><path class="cls-70" d="M550.13,313.73l-.58,9.64,0,.08-.35.91c-13.78,11.08-27.42,12.17-37.63,11,.1-1.46.22-2.67.3-3.46,8,.62,15.63.54,17.55-1a13.87,13.87,0,0,0,2.86-3.91A37.11,37.11,0,0,0,550.13,313.73Z"/><path class="cls-71" d="M207.83,256.26c-24-21-57,3.87-63,30.87-1.74,7.31-3.42,18.55-4.83,29.64-2.25,17.72,53,12.31,53.68,12.87s3.7,8,11.65,10.92C233.21,321.53,228.35,275.85,207.83,256.26Z"/><polygon class="cls-38" points="399.43 519.3 353.34 522.45 304.41 525.8 288.88 497.27 282.91 486.3 355.91 480.8 399.43 519.3"/><polygon class="cls-72" points="400.89 516.41 354.8 519.56 305.87 522.91 290.34 494.38 284.37 483.41 357.37 477.91 400.89 516.41"/><path class="cls-73" d="M232.61,394.32l1.78,9.07,28.11-2.7L291,391.56l-36.49-6.65s-20-36.55-28.34-49c-2.63-3.94-10.46-4.92-13.66-6.34Z"/><polygon class="cls-38" points="237.4 456.33 337.4 456.33 337.75 451.47 239.3 448.58 237.4 456.33"/><polygon class="cls-74" points="238.97 453.9 338.97 453.9 339.32 449.04 239.27 449.04 238.97 453.9"/><polygon class="cls-54" points="242.64 393.9 239.27 449.04 339.32 449.04 343.31 393.9 242.64 393.9"/><path class="cls-75" d="M225.06,426.19s-3.26,1.37-4.42,2.87l-1,12.45s7.75,4.29,13.56,6a62.91,62.91,0,0,0,11,1.59c4.7.36,10.82.76,10.6-1s-8.44-1.07-8.72-2.18,13-.73,13-2.8-13.42-.42-13.42-1.38,16.47-.81,16.47-2.77c0-2.49-16.57-.73-16.19-2.35.22-1,15.22-.69,15.08-2.63s-8.3-1.11-13.29-1.52-10.1-2.49-10.85-4.71,11.12-4.84,9.88-6.5-21.66,5-21.66,5"/><path class="cls-76" d="M197.44,324.15A36.14,36.14,0,0,1,221,331.09a31.51,31.51,0,0,1,7.12,7.33c6.16,9,9.08,38.62,6.31,65l-57.07,11.44c3.76,1.54,35.42,10.26,48.65,10.77-7.47,4.15-5,17.44-5,17.44-31-.66-66.53-3.4-72.67-27.81-4.69-18.63-7.3-46.09-7.5-57.38-.28-15.27,7.56-23.53,15.41-27.45s25.63-5.46,25.63-5.46Z"/><path class="cls-77" d="M221.84,262.12c-.13,1.45-.31,2.89-.51,4.3-1.92-7.36-14.48-15.7-28.71-14.4,0,0,0,1.72-2.68,2.2s-3.86-2.86-4.46,0-.59,6.72-3.86,6.72S176.26,263,176,265.1s5.23,9.56,2.46,11.4c-3.17,2.1-5.46,10-5.46,10s-2.47-18.25-12.3-7.56c-.69,2-1.28,3.94-1.77,5.91-.46-2.86.28-5.09,1.86-6.51a6,6,0,0,1,1.49-1,50.93,50.93,0,0,1-2.38-15,34.61,34.61,0,0,1,1-8.66c3.89-15,23.34-19.4,36-18.53S223,248,221.84,262.12Z"/><path class="cls-78" d="M166.72,303.61a43.92,43.92,0,0,0,31.53,19l-.09-1.69-.1-2.08c-9-2.67-19.86-8.93-32.46-22l.27.31a44.29,44.29,0,0,1,.77,5.61C166.66,303,166.69,303.31,166.72,303.61Z"/><path class="cls-79" d="M167.27,282.93s-2.93-3.46-4.59-.54,1.62,7.45,1.62,7.45Z"/><path class="cls-48" d="M170.21,337.81s27.58,20,34.33,18.76,1.5-27,1.5-27"/><path class="cls-80" d="M241.38,316.45c2.84,6.18,1,14.56-2.91,19.08-3.46,4-2.77,8.79-5.61,11.25-5.75-8.81-11-16.67-20.08-20.21,16.32-17.92-6.54-50.27-8.23-56.8l-31.63,20.08s9.4,23.29-3.34,40.05c-2.69,3.54-14.44,26.12-26.63,20.34-7.28-3.46-2.51-10.52-4.24-12.43-5.93-6.55-12.37-13.49-9.34-18.89s1.89-2.84-1-6.14-1.59-8,.61-11-3-12,.16-15.5c6.8-7.48,5.29-15,4.47-17.62s1.61-5,3.53-6.33,2.47-4.7,2.11-10.08,4.29-7.31,5.67-8.7c3.58-3.63,3.39-5.28,4.37-9.19,1.75-7,13.21-7,19.76-7.1s4.65-9.31,19.87-5.63c2.43.59,5.72,5.73,13.82,4.06,8.54-1.77,18.22,6.39,17.65,10.45s10.64,4.33,11.47,17.08c0,.33.05.7.08,1.1a23.71,23.71,0,0,0,3.44,10.3,22.68,22.68,0,0,1,1.91,4c1.87,5.18-1.45,10.38,0,14.91s4,11.31,1.13,18C235.11,309.17,240.09,313.64,241.38,316.45Z"/><path class="cls-81" d="M222.54,299c-2.83,12.31-14.24,17.91-21.63,19.48-.71.14-1.38.25-2,.32-.3,0-.58.08-.85.1l.1,2.08.19,2.65.16,2.35L203.77,348a3.1,3.1,0,0,1-4.79,3.26c-10.55-7.36-29.19-17.64-29.4-21.36,0,0-1.09-5.67-2.58-22.91-.09-1.08-.18-2.2-.28-3.37,0-.3-.06-.59-.08-.87,0-.58-.13-1.28-.21-2a26,26,0,0,0-.56-3.64,2.61,2.61,0,0,1-.27-.31c-4.13-4.66-6.2-8.75-6.7-12,.28-1.14.6-2.28.95-3.41a8.76,8.76,0,0,1,3.66-5c7.48-4.64,9.46,10,9.46,10s25.28-5.23,31.53-34.76a12.43,12.43,0,0,1,9.64,2.12c3,2.08,5.78,5.88,7.19,12.6h0c-.57,4-1.26,7.87-.93,11.5C220.83,282.87,224.53,290.38,222.54,299Z"/><path class="cls-82" d="M214.14,253.82c-3.88,10.1-10,19.51-22.26,26.46C178.39,288,173,286.46,173,286.46s25.28-5.23,31.53-34.76A12.43,12.43,0,0,1,214.14,253.82Z"/><path class="cls-83" d="M198.16,320.94l.19,2.65c-9.56-1.14-21-5.08-31.35-16.6-.09-1.08-.18-2.2-.28-3.37,0-.3-.06-.59-.08-.87,0-.58-.13-1.28-.21-2,12.64,10.21,23.39,15.54,32.48,18-.3,0-.58.08-.85.1Z"/><path class="cls-84" d="M130.22,488.58c0,6.33-13.44,11.47-30,11.47s-30-5.13-30-11.47c0-15.14,13.44-11.47,30-11.47S130.22,473.45,130.22,488.58Z"/><ellipse class="cls-85" cx="100.21" cy="484.45" rx="30.01" ry="11.47"/><polyline class="cls-86" points="100.21 484.45 76.33 443.78 101.79 400.69"/><path class="cls-87" d="M139.85,399.85,113.18,425,94.84,401.55a15.61,15.61,0,0,1,1.58-21h0a15.61,15.61,0,0,1,21-.39Z"/></g></g></svg>