<svg width="223" height="210" viewBox="0 0 223 210" fill="none" xmlns="http://www.w3.org/2000/svg">
<rect width="223" height="210" rx="30" fill="#9B51E0"/>
<path d="M62.5703 72.3438V101.23C62.5703 105.742 61.2617 109.268 58.6445 111.807C56.0273 114.326 52.4824 115.586 48.0098 115.586C43.5371 115.586 39.9922 114.326 37.375 111.807C34.7578 109.268 33.4395 105.781 33.4199 101.348V72.3438H35.002V101.172C35.002 105.117 36.1836 108.242 38.5469 110.547C40.9297 112.852 44.084 114.004 48.0098 114.004C51.9355 114.004 55.0801 112.852 57.4434 110.547C59.8066 108.242 60.9883 105.107 60.9883 101.143V72.3438H62.5703ZM95.7754 116.582H70.9902V115H95.7754V116.582ZM35.002 181H33.4199V136H35.002V181ZM68.8809 181C68.4902 179.652 68.2949 177.719 68.2949 175.199C67.0449 177.23 65.3359 178.803 63.168 179.916C61 181.029 58.5488 181.586 55.8145 181.586C52.8848 181.586 50.5215 180.795 48.7246 179.213C46.9473 177.611 46.0586 175.531 46.0586 172.973C46.0586 170.062 47.3672 167.738 49.9844 166C52.6211 164.242 56.1172 163.344 60.4727 163.305H68.2949V158.676C68.2949 156.02 67.4551 153.959 65.7754 152.494C64.1152 151.029 61.7324 150.297 58.627 150.297C55.7363 150.297 53.3242 151.039 51.3906 152.523C49.457 154.008 48.4902 155.844 48.4902 158.031L46.9082 157.973C46.9082 155.395 48.041 153.207 50.3066 151.41C52.5723 149.613 55.3457 148.715 58.627 148.715C62.0449 148.715 64.7598 149.574 66.7715 151.293C68.7832 152.992 69.8184 155.395 69.877 158.5V173.646C69.877 177.123 70.1504 179.486 70.6973 180.736V181H68.8809ZM55.8145 180.033C58.7832 180.033 61.332 179.369 63.4609 178.041C65.6094 176.713 67.2207 174.848 68.2949 172.445V164.916H60.9707C56.4395 164.916 52.9727 165.814 50.5703 167.611C48.6172 169.076 47.6406 170.902 47.6406 173.09C47.6406 175.023 48.4121 176.664 49.9551 178.012C51.498 179.359 53.4512 180.033 55.8145 180.033ZM107.33 165.443C107.33 170.385 106.266 174.311 104.137 177.221C102.008 180.131 99.1074 181.586 95.4355 181.586C93.0527 181.586 90.9238 181.098 89.0488 180.121C87.1738 179.125 85.6992 177.748 84.625 175.99V181H83.043V136H84.625V155.072C85.7383 152.982 87.2031 151.4 89.0195 150.326C90.8555 149.252 92.9746 148.715 95.377 148.715C99.0879 148.715 102.008 150.141 104.137 152.992C106.266 155.824 107.33 159.809 107.33 164.945V165.443ZM105.689 164.828C105.689 160.277 104.781 156.723 102.965 154.164C101.168 151.586 98.6484 150.297 95.4062 150.297C92.75 150.297 90.4941 150.98 88.6387 152.348C86.8027 153.715 85.4648 155.746 84.625 158.441V172.973C85.4648 175.219 86.8027 176.957 88.6387 178.188C90.4941 179.398 92.7695 180.004 95.4648 180.004C98.7266 180.004 101.246 178.705 103.023 176.107C104.801 173.51 105.689 169.75 105.689 164.828ZM130.369 181.586C127.811 181.586 125.457 180.902 123.309 179.535C121.18 178.148 119.51 176.254 118.299 173.852C117.088 171.449 116.482 168.783 116.482 165.854V164.535C116.482 161.605 117.068 158.92 118.24 156.479C119.412 154.037 121.023 152.133 123.074 150.766C125.125 149.398 127.361 148.715 129.783 148.715C133.318 148.715 136.209 149.975 138.455 152.494C140.701 155.014 141.824 158.324 141.824 162.426V164.096H118.064V165.824C118.064 168.402 118.602 170.795 119.676 173.002C120.77 175.189 122.264 176.908 124.158 178.158C126.072 179.408 128.143 180.033 130.369 180.033C132.498 180.033 134.305 179.682 135.789 178.979C137.293 178.256 138.621 177.152 139.773 175.668L140.887 176.459C138.523 179.877 135.018 181.586 130.369 181.586ZM129.783 150.297C126.697 150.297 124.08 151.449 121.932 153.754C119.783 156.039 118.523 158.959 118.152 162.514H140.242V162.133C140.242 159.984 139.783 157.992 138.865 156.156C137.967 154.301 136.717 152.865 135.115 151.85C133.533 150.814 131.756 150.297 129.783 150.297Z" fill="black"/>
</svg>
