<svg xmlns="http://www.w3.org/2000/svg" xmlns:xlink="http://www.w3.org/1999/xlink" version="1.1" x="0px" y="0px" viewBox="0 0 64 80" style="enable-background:new 0 0 64 64;" xml:space="preserve"><g><g><g><g><path d="M51,15h-2V8c0-0.553,0.448-1,1-1h8v2h-7V15z"/></g><g><path d="M60,11c-1.654,0-3-1.346-3-3s1.346-3,3-3s3,1.346,3,3S61.654,11,60,11z M60,7c-0.551,0-1,0.448-1,1s0.449,1,1,1      s1-0.448,1-1S60.551,7,60,7z"/></g></g><g><g><path d="M15,15h-2V9H6V7h8c0.552,0,1,0.447,1,1V15z"/></g><g><path d="M4,11c-1.654,0-3-1.346-3-3s1.346-3,3-3s3,1.346,3,3S5.654,11,4,11z M4,7C3.449,7,3,7.448,3,8s0.449,1,1,1s1-0.448,1-1      S4.551,7,4,7z"/></g></g><g><g><path d="M33,10h-2V4h-5V2h6c0.552,0,1,0.447,1,1V10z"/></g><g><path d="M24,6c-1.654,0-3-1.346-3-3s1.346-3,3-3s3,1.346,3,3S25.654,6,24,6z M24,2c-0.551,0-1,0.448-1,1s0.449,1,1,1      s1-0.448,1-1S24.551,2,24,2z"/></g><g><path d="M33,10h-2V3c0-0.553,0.448-1,1-1h6v2h-5V10z"/></g><g><path d="M40,6c-1.654,0-3-1.346-3-3s1.346-3,3-3s3,1.346,3,3S41.654,6,40,6z M40,2c-0.551,0-1,0.448-1,1s0.449,1,1,1      s1-0.448,1-1S40.551,2,40,2z"/></g></g></g><g><g><g><path d="M58,57h-8c-0.552,0-1-0.447-1-1v-7h2v6h7V57z"/></g><g><path d="M60,59c-1.654,0-3-1.346-3-3s1.346-3,3-3s3,1.346,3,3S61.654,59,60,59z M60,55c-0.551,0-1,0.448-1,1s0.449,1,1,1      s1-0.448,1-1S60.551,55,60,55z"/></g></g><g><g><path d="M14,57H6v-2h7v-6h2v7C15,56.553,14.552,57,14,57z"/></g><g><path d="M4,59c-1.654,0-3-1.346-3-3s1.346-3,3-3s3,1.346,3,3S5.654,59,4,59z M4,55c-0.551,0-1,0.448-1,1s0.449,1,1,1      s1-0.448,1-1S4.551,55,4,55z"/></g></g><g><g><path d="M32,62h-6v-2h5v-6h2v7C33,61.553,32.552,62,32,62z"/></g><g><path d="M24,64c-1.654,0-3-1.346-3-3s1.346-3,3-3s3,1.346,3,3S25.654,64,24,64z M24,60c-0.551,0-1,0.448-1,1s0.449,1,1,1      s1-0.448,1-1S24.551,60,24,60z"/></g><g><path d="M38,62h-6c-0.552,0-1-0.447-1-1v-7h2v6h5V62z"/></g><g><path d="M40,64c-1.654,0-3-1.346-3-3s1.346-3,3-3s3,1.346,3,3S41.654,64,40,64z M40,60c-0.551,0-1,0.448-1,1s0.449,1,1,1      s1-0.448,1-1S40.551,60,40,60z"/></g></g></g><g><g><g><path d="M32,51.821c-13.379,0-25.596-7.416-31.885-19.355c-0.154-0.291-0.154-0.641,0-0.932      C6.404,19.595,18.621,12.179,32,12.179s25.596,7.416,31.885,19.355c0.154,0.291,0.154,0.64,0,0.932      c-1.867,3.546-4.289,6.74-7.197,9.494l-1.375-1.451c2.621-2.482,4.823-5.343,6.553-8.509C55.854,20.993,44.459,14.179,32,14.179      S8.146,20.993,2.135,32C8.146,43.007,19.541,49.821,32,49.821c7.754,0,15.343-2.701,21.369-7.605l1.263,1.551      C48.25,48.961,40.213,51.821,32,51.821z"/></g></g><g><g><path d="M35,44h-6c-0.459,0-0.859-0.312-0.97-0.758l-1.846-7.383C24.156,34.142,23,31.661,23,29c0-4.963,4.038-9,9-9      s9,4.037,9,9c0,2.661-1.156,5.142-3.184,6.859l-1.846,7.383C35.859,43.688,35.459,44,35,44z M29.781,42h4.438l1.737-6.947      c0.054-0.216,0.178-0.407,0.354-0.545C38.02,33.167,39,31.16,39,29c0-3.859-3.14-7-7-7s-7,3.141-7,7      c0,2.16,0.98,4.167,2.69,5.508c0.175,0.138,0.299,0.329,0.354,0.545L29.781,42z"/></g><g><rect x="27" y="37" width="7" height="2"/></g><g><path d="M32,32c-0.256,0-0.512-0.098-0.707-0.293l-4-4l1.414-1.414L32,29.586l3.293-3.293l1.414,1.414l-4,4      C32.512,31.902,32.256,32,32,32z"/></g><g><rect x="31" y="31" width="2" height="4"/></g></g><g><g><path d="M31.949,48.018c-2.693,0-5.402-0.677-7.858-2.068l0.985-1.74c5.493,3.11,12.434,2.137,16.881-2.367      c4.638-4.698,5.368-12.089,1.736-17.574l1.668-1.104c4.151,6.27,3.318,14.716-1.981,20.082      C40.288,46.379,36.138,48.018,31.949,48.018z"/></g><g><path d="M18.626,40.849c-4.15-6.27-3.317-14.716,1.981-20.083c5.083-5.149,13.02-6.258,19.295-2.7l-0.986,1.74      c-5.492-3.115-12.436-2.142-16.886,2.364c-4.637,4.698-5.368,12.089-1.736,17.575L18.626,40.849z"/></g><g><path d="M40.91,25.07l-0.707-4.949c-0.045-0.312,0.06-0.626,0.283-0.849c0.222-0.223,0.533-0.329,0.849-0.283l4.95,0.707      L46,21.677l-3.629-0.519l0.518,3.629L40.91,25.07z"/></g><g><path d="M22.808,45.021c-0.047,0-0.094-0.003-0.142-0.01l-4.95-0.707L18,42.323l3.629,0.519l-0.518-3.629l1.979-0.283      l0.707,4.949c0.045,0.312-0.06,0.626-0.283,0.849C23.326,44.916,23.071,45.021,22.808,45.021z"/></g></g></g></g><text x="0" y="79" fill="#000000" font-size="5px" font-weight="bold" font-family="'Helvetica Neue', Helvetica, Arial-Unicode, Arial, Sans-serif">Created by LINECTOR </text><text x="0" y="84" fill="#000000" font-size="5px" font-weight="bold" font-family="'Helvetica Neue', Helvetica, Arial-Unicode, Arial, Sans-serif">from the Noun Project</text></svg>