<svg xmlns="http://www.w3.org/2000/svg" viewBox="0 0 19.99 24.987499999999997" x="0px" y="0px"><title>Element 21</title><g data-name="Ebene 2"><g data-name="Ebene 1"><path d="M6,14.26a.3.3,0,0,1-.22-.51L12.59,7A.3.3,0,0,1,13,7a.29.29,0,0,1,0,.42L6.25,14.17A.3.3,0,0,1,6,14.26Z"/><path d="M6,20H.3a.29.29,0,0,1-.3-.3V14a.29.29,0,0,1,.3-.3H6a.29.29,0,0,1,.29.3v5.73A.29.29,0,0,1,6,20ZM.6,19.39H5.74V14.26H.6Z"/><path d="M12.81,11.6a.29.29,0,0,1-.3-.3V7.48H8.69a.31.31,0,0,1-.3-.3.3.3,0,0,1,.3-.3h4.12a.3.3,0,0,1,.3.3V11.3A.3.3,0,0,1,12.81,11.6Z"/><path d="M19.69,20h-1.5a.3.3,0,0,1-.3-.3.31.31,0,0,1,.3-.3h1.2v-1.2a.31.31,0,0,1,.3-.3.3.3,0,0,1,.3.3v1.5A.29.29,0,0,1,19.69,20Z"/><path d="M16.55,20H13.27a.3.3,0,0,1-.3-.3.31.31,0,0,1,.3-.3h3.28a.3.3,0,0,1,.3.3A.29.29,0,0,1,16.55,20Zm-4.92,0H8.36a.29.29,0,0,1-.3-.3.3.3,0,0,1,.3-.3h3.27a.3.3,0,0,1,.3.3A.29.29,0,0,1,11.63,20Z"/><path d="M1.8,20H.3a.29.29,0,0,1-.3-.3v-1.5a.3.3,0,1,1,.6,0v1.2H1.8a.3.3,0,0,1,.3.3A.29.29,0,0,1,1.8,20Z"/><path d="M.3,11.93a.29.29,0,0,1-.3-.3V8.36a.29.29,0,0,1,.3-.3.29.29,0,0,1,.3.3v3.27A.29.29,0,0,1,.3,11.93ZM.3,7a.3.3,0,0,1-.3-.3V3.44a.29.29,0,0,1,.3-.3.29.29,0,0,1,.3.3V6.72A.3.3,0,0,1,.3,7Z"/><path d="M.3,2.1A.29.29,0,0,1,0,1.8V.3A.29.29,0,0,1,.3,0H1.8a.29.29,0,0,1,.3.3.29.29,0,0,1-.3.3H.6V1.8A.29.29,0,0,1,.3,2.1Z"/><path d="M16.55.6H13.27a.3.3,0,0,1,0-.6h3.28a.29.29,0,0,1,.3.3A.29.29,0,0,1,16.55.6ZM11.63.6H8.36a.29.29,0,0,1-.3-.3.29.29,0,0,1,.3-.3h3.27a.29.29,0,0,1,.3.3A.29.29,0,0,1,11.63.6ZM6.72.6H3.44a.29.29,0,0,1-.3-.3.29.29,0,0,1,.3-.3H6.72a.3.3,0,1,1,0,.6Z"/><path d="M19.69,2.1a.3.3,0,0,1-.3-.3V.6h-1.2a.3.3,0,1,1,0-.6h1.5a.29.29,0,0,1,.3.3V1.8A.29.29,0,0,1,19.69,2.1Z"/><path d="M19.69,16.85a.3.3,0,0,1-.3-.3V13.27a.31.31,0,0,1,.3-.3.3.3,0,0,1,.3.3v3.28A.29.29,0,0,1,19.69,16.85Zm0-4.92a.3.3,0,0,1-.3-.3V8.36a.3.3,0,0,1,.3-.3.29.29,0,0,1,.3.3v3.27A.29.29,0,0,1,19.69,11.93Zm0-4.91a.31.31,0,0,1-.3-.3V3.44a.3.3,0,0,1,.3-.3.29.29,0,0,1,.3.3V6.72A.3.3,0,0,1,19.69,7Z"/></g></g><text x="0" y="34.989999999999995" fill="#000000" font-size="5px" font-weight="bold" font-family="'Helvetica Neue', Helvetica, Arial-Unicode, Arial, Sans-serif">Created by DesignHawk</text><text x="0" y="39.989999999999995" fill="#000000" font-size="5px" font-weight="bold" font-family="'Helvetica Neue', Helvetica, Arial-Unicode, Arial, Sans-serif">from the Noun Project</text></svg>