<svg xmlns="http://www.w3.org/2000/svg" xmlns:xlink="http://www.w3.org/1999/xlink" version="1.1" x="0px" y="0px" viewBox="0 0 512 640" style="enable-background:new 0 0 512 512;" xml:space="preserve"><g><g><g><g><path d="M254.305,485.998c-5.523,0-10-4.477-10-10v-60c0-5.522,4.477-10,10-10s10,4.478,10,10v60      C264.305,481.521,259.828,485.998,254.305,485.998z"/></g><g><g><g><path d="M259.305,46.001c-2.629,0-5.209-1.07-7.07-2.93c-1.86-1.86-2.93-4.44-2.93-7.07c0-2.64,1.07-5.21,2.93-7.07        c1.86-1.87,4.44-2.93,7.07-2.93c2.631,0,5.211,1.06,7.07,2.93c1.859,1.86,2.93,4.43,2.93,7.07c0,2.63-1.07,5.21-2.93,7.07        C264.516,44.932,261.936,46.001,259.305,46.001z"/></g><g><path d="M259.305,76.001c-2.629,0-5.209-1.07-7.07-2.93c-1.86-1.86-2.93-4.44-2.93-7.07c0-2.64,1.07-5.21,2.93-7.07        c1.86-1.87,4.44-2.93,7.07-2.93c2.631,0,5.211,1.06,7.07,2.93c1.859,1.86,2.93,4.43,2.93,7.07c0,2.63-1.07,5.21-2.93,7.07        C264.516,74.932,261.936,76.001,259.305,76.001z"/></g><g><path d="M259.305,106.001c-2.629,0-5.209-1.07-7.07-2.93c-1.86-1.86-2.93-4.44-2.93-7.07c0-2.64,1.07-5.21,2.93-7.07        c1.86-1.87,4.44-2.93,7.07-2.93c2.631,0,5.211,1.06,7.07,2.93c1.859,1.86,2.93,4.43,2.93,7.07c0,2.63-1.07,5.21-2.93,7.07        C264.516,104.932,261.936,106.001,259.305,106.001z"/></g><g><path d="M259.305,136.001c-2.629,0-5.209-1.07-7.07-2.93c-1.86-1.86-2.93-4.44-2.93-7.07c0-2.64,1.07-5.21,2.93-7.07        c1.86-1.87,4.44-2.93,7.07-2.93c2.631,0,5.211,1.06,7.07,2.93c1.859,1.86,2.93,4.43,2.93,7.07c0,2.63-1.07,5.21-2.93,7.07        C264.516,134.932,261.936,136.001,259.305,136.001z"/></g></g></g><g><g><path d="M416.336,108.972c-2.631,0-5.211-1.07-7.07-2.93c-1.861-1.86-2.93-4.44-2.93-7.07c0-2.63,1.068-5.21,2.93-7.07       c1.859-1.86,4.43-2.93,7.07-2.93c2.629,0,5.209,1.07,7.068,2.93c1.861,1.86,2.932,4.44,2.932,7.07c0,2.63-1.07,5.21-2.932,7.07       C421.545,107.901,418.965,108.972,416.336,108.972z"/></g><g><path d="M395.115,130.182c-2.631,0-5.211-1.07-7.07-2.93s-2.93-4.44-2.93-7.07s1.07-5.21,2.93-7.07       c1.859-1.86,4.439-2.93,7.07-2.93c2.641,0,5.209,1.07,7.08,2.93c1.859,1.86,2.92,4.44,2.92,7.07s-1.061,5.21-2.92,7.07       C400.324,129.111,397.756,130.182,395.115,130.182z"/></g><g><path d="M373.904,151.401c-2.629,0-5.209-1.07-7.068-2.93c-1.861-1.86-2.932-4.44-2.932-7.07c0-2.64,1.07-5.22,2.932-7.08       c1.859-1.86,4.439-2.92,7.068-2.92c2.631,0,5.211,1.06,7.07,2.92c1.861,1.87,2.93,4.44,2.93,7.08c0,2.63-1.068,5.2-2.93,7.07       C379.115,150.332,376.535,151.401,373.904,151.401z"/></g><g><path d="M352.695,172.611c-2.631,0-5.211-1.07-7.07-2.93s-2.93-4.44-2.93-7.07c0-2.64,1.07-5.21,2.93-7.07       s4.439-2.93,7.07-2.93c2.629,0,5.209,1.07,7.07,2.93c1.859,1.86,2.93,4.44,2.93,7.07c0,2.63-1.07,5.21-2.93,7.07       C357.904,171.542,355.324,172.611,352.695,172.611z"/></g></g><g><g><path d="M159.305,349.392c-2.63,0-5.21-1.069-7.07-2.931c-1.86-1.869-2.93-4.439-2.93-7.069c0-2.64,1.07-5.21,2.93-7.08       c1.86-1.86,4.44-2.92,7.07-2.92c2.63,0,5.21,1.06,7.07,2.92s2.93,4.44,2.93,7.08c0,2.63-1.07,5.21-2.93,7.069       C164.515,348.322,161.935,349.392,159.305,349.392z"/></g><g><path d="M138.095,370.602c-2.63,0-5.21-1.07-7.07-2.93c-1.87-1.86-2.93-4.44-2.93-7.07s1.06-5.21,2.93-7.07       c1.86-1.859,4.44-2.93,7.07-2.93c2.63,0,5.21,1.07,7.07,2.93c1.86,1.86,2.93,4.44,2.93,7.07s-1.07,5.21-2.93,7.07       C143.305,369.531,140.725,370.602,138.095,370.602z"/></g><g><path d="M116.875,391.812c-2.63,0-5.21-1.069-7.07-2.931c-1.86-1.859-2.93-4.439-2.93-7.069s1.07-5.21,2.93-7.069       c1.86-1.861,4.44-2.931,7.07-2.931c2.64,0,5.21,1.069,7.08,2.931c1.86,1.859,2.92,4.439,2.92,7.069s-1.06,5.21-2.92,7.069       C122.085,390.742,119.515,391.812,116.875,391.812z"/></g><g><path d="M95.665,413.031c-2.63,0-5.21-1.07-7.07-2.93c-1.86-1.859-2.93-4.439-2.93-7.08c0-2.63,1.07-5.199,2.93-7.07       c1.86-1.859,4.44-2.92,7.07-2.92s5.21,1.061,7.07,2.92c1.86,1.871,2.93,4.44,2.93,7.07c0,2.641-1.07,5.221-2.93,7.08       C100.875,411.961,98.295,413.031,95.665,413.031z"/></g></g><g><g><path d="M479.305,261.002c-2.629,0-5.209-1.07-7.07-2.93c-1.859-1.861-2.93-4.441-2.93-7.071s1.07-5.21,2.93-7.07       c1.861-1.87,4.441-2.93,7.07-2.93c2.631,0,5.211,1.06,7.07,2.93c1.859,1.86,2.93,4.44,2.93,7.07s-1.07,5.21-2.93,7.071       C484.516,259.932,481.936,261.002,479.305,261.002z"/></g><g><path d="M449.305,261.002c-2.629,0-5.209-1.07-7.07-2.93c-1.859-1.861-2.93-4.441-2.93-7.071c0-2.64,1.07-5.21,2.93-7.07       c1.861-1.87,4.441-2.93,7.07-2.93c2.631,0,5.211,1.06,7.07,2.93c1.859,1.86,2.93,4.44,2.93,7.07s-1.07,5.21-2.93,7.071       C454.516,259.932,451.936,261.002,449.305,261.002z"/></g><g><path d="M419.305,261.002c-2.629,0-5.209-1.07-7.07-2.93c-1.859-1.861-2.93-4.441-2.93-7.071c0-2.64,1.07-5.21,2.93-7.07       c1.861-1.87,4.441-2.93,7.07-2.93c2.631,0,5.211,1.06,7.07,2.93c1.859,1.86,2.93,4.43,2.93,7.07c0,2.63-1.07,5.21-2.93,7.071       C424.516,259.932,421.936,261.002,419.305,261.002z"/></g><g><path d="M389.305,261.002c-2.629,0-5.209-1.07-7.07-2.93c-1.859-1.861-2.93-4.441-2.93-7.071c0-2.64,1.07-5.21,2.93-7.07       c1.861-1.87,4.441-2.93,7.07-2.93c2.631,0,5.211,1.06,7.07,2.93c1.859,1.86,2.93,4.43,2.93,7.07c0,2.63-1.07,5.21-2.93,7.071       C394.516,259.932,391.936,261.002,389.305,261.002z"/></g></g><g><g><path d="M122.695,261.002c-2.63,0-5.21-1.07-7.07-2.93c-1.86-1.871-2.93-4.441-2.93-7.071s1.07-5.21,2.93-7.07       c1.86-1.87,4.44-2.93,7.07-2.93c2.63,0,5.21,1.06,7.07,2.93c1.86,1.86,2.93,4.43,2.93,7.07c0,2.63-1.07,5.21-2.93,7.071       C127.905,259.932,125.325,261.002,122.695,261.002z"/></g><g><path d="M92.695,261.002c-2.64,0-5.21-1.07-7.07-2.93c-1.86-1.861-2.93-4.441-2.93-7.071c0-2.64,1.07-5.21,2.93-7.07       c1.86-1.87,4.44-2.93,7.07-2.93c2.63,0,5.21,1.06,7.07,2.93c1.86,1.86,2.93,4.43,2.93,7.07c0,2.63-1.07,5.21-2.93,7.071       C97.905,259.932,95.325,261.002,92.695,261.002z"/></g><g><path d="M62.695,261.002c-2.63,0-5.21-1.07-7.07-2.93c-1.86-1.861-2.93-4.441-2.93-7.071c0-2.64,1.07-5.21,2.93-7.07       c1.86-1.87,4.44-2.93,7.07-2.93c2.63,0,5.21,1.06,7.07,2.93c1.86,1.86,2.93,4.43,2.93,7.07c0,2.63-1.07,5.21-2.93,7.071       C67.905,259.932,65.325,261.002,62.695,261.002z"/></g><g><path d="M32.695,261.002c-2.63,0-5.21-1.07-7.07-2.93c-1.86-1.861-2.93-4.441-2.93-7.071c0-2.64,1.07-5.21,2.93-7.07       s4.44-2.93,7.07-2.93c2.63,0,5.21,1.07,7.07,2.93c1.86,1.86,2.93,4.43,2.93,7.07c0,2.63-1.07,5.21-2.93,7.071       C37.905,259.932,35.325,261.002,32.695,261.002z"/></g></g><g><g><path d="M95.665,108.972c-2.63,0-5.21-1.07-7.07-2.93c-1.86-1.86-2.93-4.44-2.93-7.07c0-2.63,1.07-5.21,2.93-7.07       c1.86-1.86,4.44-2.93,7.07-2.93s5.21,1.07,7.07,2.93c1.86,1.86,2.93,4.44,2.93,7.07c0,2.63-1.07,5.21-2.93,7.07       C100.875,107.901,98.295,108.972,95.665,108.972z"/></g><g><path d="M116.875,130.182c-2.63,0-5.21-1.07-7.07-2.93c-1.86-1.86-2.93-4.44-2.93-7.07s1.07-5.21,2.93-7.07       c1.86-1.86,4.44-2.93,7.07-2.93c2.64,0,5.21,1.07,7.08,2.93c1.86,1.86,2.92,4.44,2.92,7.07s-1.06,5.21-2.92,7.07       S119.515,130.182,116.875,130.182z"/></g><g><path d="M138.095,151.392c-2.63,0-5.21-1.06-7.07-2.92c-1.87-1.86-2.93-4.44-2.93-7.08c0-2.63,1.06-5.2,2.93-7.07       c1.86-1.86,4.44-2.93,7.07-2.93c2.63,0,5.21,1.07,7.07,2.93c1.86,1.87,2.93,4.44,2.93,7.07c0,2.64-1.07,5.21-2.93,7.08       C143.305,150.332,140.725,151.392,138.095,151.392z"/></g><g><path d="M159.305,172.611c-2.63,0-5.21-1.07-7.07-2.93c-1.86-1.86-2.93-4.44-2.93-7.07c0-2.63,1.07-5.21,2.93-7.07       c1.86-1.86,4.44-2.93,7.07-2.93c2.63,0,5.21,1.07,7.07,2.93s2.93,4.44,2.93,7.07c0,2.63-1.07,5.21-2.93,7.07       S161.935,172.611,159.305,172.611z"/></g></g><g><g><path d="M352.695,349.392c-2.631,0-5.211-1.069-7.07-2.931c-1.859-1.869-2.93-4.439-2.93-7.069c0-2.64,1.07-5.21,2.93-7.08       c1.859-1.86,4.439-2.92,7.07-2.92c2.629,0,5.209,1.06,7.07,2.92c1.859,1.87,2.93,4.44,2.93,7.08c0,2.63-1.07,5.2-2.93,7.069       C357.904,348.322,355.324,349.392,352.695,349.392z"/></g><g><path d="M373.904,370.602c-2.629,0-5.209-1.07-7.068-2.93c-1.861-1.86-2.932-4.44-2.932-7.07c0-2.641,1.07-5.21,2.932-7.07       c1.859-1.859,4.439-2.93,7.068-2.93c2.631,0,5.211,1.07,7.07,2.93c1.861,1.86,2.93,4.44,2.93,7.07s-1.068,5.21-2.93,7.07       C379.115,369.531,376.545,370.602,373.904,370.602z"/></g><g><path d="M395.115,391.812c-2.631,0-5.211-1.069-7.07-2.931c-1.859-1.859-2.93-4.439-2.93-7.069s1.07-5.21,2.93-7.069       c1.859-1.861,4.439-2.931,7.07-2.931c2.641,0,5.209,1.069,7.08,2.931c1.859,1.859,2.92,4.439,2.92,7.069       s-1.061,5.21-2.92,7.069C400.324,390.742,397.756,391.812,395.115,391.812z"/></g><g><path d="M416.336,413.031c-2.631,0-5.211-1.07-7.07-2.93c-1.861-1.859-2.93-4.439-2.93-7.07c0-2.64,1.068-5.209,2.93-7.08       c1.859-1.859,4.43-2.92,7.07-2.92c2.629,0,5.209,1.061,7.068,2.92c1.861,1.871,2.932,4.44,2.932,7.08       c0,2.631-1.07,5.211-2.932,7.07C421.545,411.961,418.965,413.031,416.336,413.031z"/></g></g><g><path d="M319.305,395.998h-130c-5.523,0-10-4.477-10-10v-88.666c0-28.306,23.028-51.333,51.333-51.333h47.334      c28.305,0,51.332,23.028,51.332,51.333v88.666C329.305,391.521,324.828,395.998,319.305,395.998z M199.305,375.998h110v-78.666      c0-17.277-14.055-31.334-31.332-31.334h-47.334c-17.277,0-31.333,14.057-31.333,31.334V375.998z"/></g><g><path d="M254.305,235.999c-24.813,0-45-20.187-45-45s20.187-45,45-45c24.814,0,45,20.187,45,45S279.119,235.999,254.305,235.999      z M254.305,165.999c-13.785,0-25,11.215-25,25s11.215,25,25,25c13.785,0,25-11.215,25-25S268.09,165.999,254.305,165.999z"/></g><g><path d="M299.305,485.998h-90c-5.523,0-10-4.477-10-10v-90c0-5.522,4.477-10,10-10h90c5.523,0,10,4.478,10,10v90      C309.305,481.521,304.828,485.998,299.305,485.998z M219.305,465.998h70v-70h-70V465.998z"/></g><g><path d="M289.305,395.998c-5.521,0-10-4.477-10-10v-70c0-5.522,4.479-10,10-10c5.523,0,10,4.478,10,10v70      C299.305,391.521,294.828,395.998,289.305,395.998z"/></g><g><path d="M219.305,395.998c-5.523,0-10-4.477-10-10v-70c0-5.522,4.477-10,10-10s10,4.478,10,10v70      C229.305,391.521,224.828,395.998,219.305,395.998z"/></g></g></g></g></svg>