<svg xmlns="http://www.w3.org/2000/svg" xmlns:xlink="http://www.w3.org/1999/xlink" version="1.1" x="0px" y="0px" viewBox="0 0 164 205" enable-background="new 0 0 164 164" xml:space="preserve"><g><g><path d="M163,77c0-0.3-0.1-0.5-0.3-0.7l-4.2-4.2c-4.9-39.4-38.5-69-78.3-69c-19.7,0-38.5,7.3-53,20.5h-0.1v-10c0-0.5-0.4-1-1-1    c-3.2,0-6.2,1.2-8.4,3.5c-2.3,2.3-3.5,5.3-3.5,8.4v14.2C5.8,51.6,1.4,66.5,1.4,82c0,9.8,1.8,19.4,5.3,28.4    C3.3,112,1,115.4,1,119.3c0,5.4,4.4,9.8,9.8,9.8c0.1,0,6.6,0,6.2,0c14.8,19.9,38.5,31.8,63.3,31.8c43.5,0,78.9-35.4,78.9-78.9    c0-0.2,0-0.5,0-0.7l3.6-3.6C162.9,77.5,163,77.3,163,77z M80.3,5.1c37.9,0,70.1,27.7,76,64.8l-25-25v-9.3    c0-6.6-5.4-11.9-11.9-11.9H110l-8.6-8.6c-0.4-0.4-1-0.4-1.4,0l-8.6,8.6H30.2C44.2,11.6,61.8,5.1,80.3,5.1z M129.3,35.5v7.4    l-17.3-17.3h7.4C124.8,25.5,129.3,30,129.3,35.5z M27.2,79.6v-54h62.3l-2.4,2.4c-0.4,0.4-0.4,1,0,1.4c4.2,4.2,42.2,42.2,42.2,42.2    v34.5c-2.3-3.5-6.1-5.4-10-5.4h-93c-5.5,0-10-4.5-10-10v0c0-5.5,4.5-10,10-10C26.8,80.5,27.2,80.1,27.2,79.6z M129.3,112.5    c0,5.5-4.5,10-10,10h-5v-20h5C124.9,102.5,129.3,107.1,129.3,112.5z M19.2,17.5c1.7-1.7,3.8-2.7,6.1-2.9v64c-3.8,0.3-7,2.4-9,5.4    V24.5l0,0C16.2,21.9,17.3,19.3,19.2,17.5z M12.9,127.1h-2.1c-4.3,0-7.8-3.5-7.8-7.8s3.5-7.8,7.8-7.8h2.1V127.1z M18.8,116.4v10.8    c-0.2,0-4.2,0-3.9,0v-15.7h3.9V116.4z M28.3,138.7h103.9c-13.7,12.6-31.9,20.2-51.9,20.2C60.9,158.9,42.4,151.6,28.3,138.7z     M134.3,136.8h-108c-2.4-2.4-4.7-4.9-6.8-7.7c5.8,0,52.8,0,59.2,0c0.1,0,0.4-0.1,0.5-0.1l16.7-8.8c0.3-0.2,0.5-0.5,0.5-0.9    s-0.2-0.7-0.5-0.9l-16.7-8.8c-0.2-0.1-0.4-0.1-0.5-0.1c-0.1,0-68,0-67.8,0c-0.8,0-1.5,0.1-2.3,0.3C5.1,100.9,3.3,91.6,3.3,82    c0-14.1,3.8-27.7,11-39.6v48.1c0,0,0,0,0,0c0,6.6,5.4,11.9,11.9,11.9h86.1v21c0,0.5,0.4,1,1,1h6c6.6,0,11.9-5.4,11.9-11.9l0,0    c0-23.2,0-16.1,0-39.1l1.1,1.1l0,0c0,0,16.2,16.2,16.2,16.2c0.2,0.2,0.4,0.3,0.7,0.3s0.5-0.1,0.7-0.3l7.4-7.4    C156.8,104.1,148.1,123.1,134.3,136.8z M77.6,117.4v9.8H20.7v-9.8H77.6z M20.7,115.4v-3.9h56.9v3.9H20.7z M79.6,126.5v-10.1v-4.3    l6.1,3.2v8L79.6,126.5z M87.6,122.3v-5.9l5.6,3L87.6,122.3z M157.4,80.2C157.4,80.2,157.4,80.2,157.4,80.2l-8.3,8.3l-3.2-3.2    l2.5-2.5c0.4-0.4,0.4-1,0-1.4c-0.4-0.4-1-0.4-1.4,0l-2.5,2.5l-4.4-4.4l2.5-2.5c0.4-0.4,0.4-1,0-1.4c-0.4-0.4-1-0.4-1.4,0l-2.5,2.5    l-4.4-4.4l2.5-2.5c0.4-0.4,0.4-1,0-1.4c-0.4-0.4-1-0.4-1.4,0l-2.5,2.5c-0.1-0.1-4.7-4.7-4.4-4.4l2.5-2.5c0.4-0.4,0.4-1,0-1.4    c-0.4-0.4-1-0.4-1.4,0l-2.5,2.5l-4.4-4.4l2.5-2.5c0.4-0.4,0.4-1,0-1.4c-0.4-0.4-1-0.4-1.4,0l-2.5,2.5l-4.4-4.4l2.5-2.5    c0.4-0.4,0.4-1,0-1.4c-0.4-0.4-1-0.4-1.4,0l-2.5,2.5l-4.4-4.4l2.5-2.5c0.4-0.4,0.4-1,0-1.4c-0.4-0.4-1-0.4-1.4,0l-2.5,2.5    l-4.4-4.4l2.5-2.5c0.4-0.4,0.4-1,0-1.4c-0.4-0.4-1-0.4-1.4,0l-2.5,2.5l-4.4-4.4l2.5-2.5c0.4-0.4,0.4-1,0-1.4c-0.4-0.4-1-0.4-1.4,0    l-2.5,2.5l-4.4-4.4l2.5-2.5c0.4-0.4,0.4-1,0-1.4c-0.4-0.4-1-0.4-1.4,0l-2.5,2.5l-3.2-3.2L100.7,17l60,60L157.4,80.2z"/></g><g><path d="M68.8,68.8c1.8,0,3.5-0.7,4.8-2c1.3-1.3,2-3,2-4.8c0-1.8-0.7-3.5-2-4.8c-2.7-2.7-7-2.7-9.6,0c-2.7,2.7-2.7,7,0,9.6    C65.2,68.1,66.9,68.8,68.8,68.8z M65.3,58.5c0.9-0.9,2.2-1.4,3.4-1.4c1.2,0,2.5,0.5,3.4,1.4c0.9,0.9,1.4,2.1,1.4,3.4    c0,1.3-0.5,2.5-1.4,3.4c-0.9,0.9-2.1,1.4-3.4,1.4c-1.3,0-2.5-0.5-3.4-1.4C63.4,63.5,63.4,60.4,65.3,58.5z"/></g><g><path d="M49.7,71.1l0.8,0.8L46,73.3c-0.3,0.1-0.6,0.4-0.6,0.7c-0.1,0.3,0,0.7,0.3,0.9l10.2,10.2c0.2,0.2,0.6,0.3,0.9,0.3    c0.3-0.1,0.6-0.3,0.7-0.6l1.5-4.5l0.8,0.8l6.9,6.9c0.2,0.2,0.4,0.3,0.7,0.3c0.2,0,0.5-0.1,0.7-0.3c3.1-3.1,4.1-7.7,2.7-11.8    c16.1-11.7,14.9-29.6,15.1-30.1c0-0.3-0.1-0.5-0.3-0.7c-0.2-0.2-0.5-0.3-0.7-0.3c-0.6,0.2-18.2-1.3-30.1,15.1    c-4.1-1.5-8.7-0.4-11.8,2.7c-0.4,0.4-0.4,1,0,1.4L49.7,71.1z M56,82.6l-7.9-7.9l3.9-1.3l5.3,5.3L56,82.6z M67.2,85.8l-5.1-5.1    c2.1-0.8,4.6-2,6.8-3.4C69.8,80.3,69.1,83.5,67.2,85.8z M55.7,61.9c10.6-15.3,27.8-14.8,28-14.8c0,0.1,0.1,24.1-23.1,32.2    c-1.9-1.9-3.2-3.2-4-4c0.5,0.5-0.1-0.1-5.1-5.1C53.2,65.3,55.2,62.6,55.7,61.9z M53.4,61.8c-1.3,2.1-2.5,4.4-3.4,6.8l-5.1-5.1    C47.3,61.6,50.4,61,53.4,61.8z"/></g><g><path d="M56.6,75.2C56,74.7,54,72.7,56.6,75.2L56.6,75.2z"/></g><g><path d="M42,83.5l3.8-3.8c0.4-0.4,0.4-1,0-1.4s-1-0.4-1.4,0l-3.8,3.8c-0.4,0.4-0.4,1,0,1.4C41,83.9,41.6,83.9,42,83.5z"/></g><g><path d="M47,83.7c-0.4-0.4-1-0.4-1.4,0l-3.8,3.8c-0.4,0.4-0.4,1,0,1.4c0.4,0.4,1,0.4,1.4,0l3.8-3.8C47.4,84.7,47.4,84.1,47,83.7z"/></g><g><path d="M51,84.9l-3.8,3.8c-0.4,0.4-0.4,1,0,1.4c0.4,0.4,1,0.4,1.4,0l3.8-3.8c0.4-0.4,0.4-1,0-1.4C52,84.6,51.4,84.6,51,84.9z"/></g><g><path d="M78,144.6c0-0.5-0.4-1-1-1H53.4c-0.5,0-1,0.4-1,1c0,0.5,0.4,1,1,1H77C77.6,145.6,78,145.1,78,144.6z"/></g><g><path d="M85.7,144.6c0-0.5-0.4-1-1-1h-3.9c-0.5,0-1,0.4-1,1c0,0.5,0.4,1,1,1h3.9C85.2,145.6,85.7,145.1,85.7,144.6z"/></g><g><path d="M88,145.6h2.6c0.5,0,1-0.4,1-1c0-0.5-0.4-1-1-1H88c-0.5,0-1,0.4-1,1C87.1,145.1,87.5,145.6,88,145.6z"/></g><g><path d="M107.1,148.4H83.5c-0.5,0-1,0.4-1,1s0.4,1,1,1h23.6c0.5,0,1-0.4,1-1S107.6,148.4,107.1,148.4z"/></g><g><path d="M79.7,148.4h-3.9c-0.5,0-1,0.4-1,1s0.4,1,1,1h3.9c0.5,0,1-0.4,1-1S80.2,148.4,79.7,148.4z"/></g><g><path d="M72.5,148.4h-2.6c-0.5,0-1,0.4-1,1s0.4,1,1,1h2.6c0.5,0,1-0.4,1-1S73,148.4,72.5,148.4z"/></g></g><text x="0" y="179" fill="#000000" font-size="5px" font-weight="bold" font-family="'Helvetica Neue', Helvetica, Arial-Unicode, Arial, Sans-serif">Created by Vectors Market</text><text x="0" y="184" fill="#000000" font-size="5px" font-weight="bold" font-family="'Helvetica Neue', Helvetica, Arial-Unicode, Arial, Sans-serif">from the Noun Project</text></svg>